<?xml version="1.0" encoding="UTF-8" standalone="no"?>
<svg
   xmlns:osb="http://www.openswatchbook.org/uri/2009/osb"
   xmlns:dc="http://purl.org/dc/elements/1.1/"
   xmlns:cc="http://creativecommons.org/ns#"
   xmlns:rdf="http://www.w3.org/1999/02/22-rdf-syntax-ns#"
   xmlns:svg="http://www.w3.org/2000/svg"
   xmlns="http://www.w3.org/2000/svg"
   xmlns:sodipodi="http://sodipodi.sourceforge.net/DTD/sodipodi-0.dtd"
   xmlns:inkscape="http://www.inkscape.org/namespaces/inkscape"
   width="841mm"
   height="594mm"
   viewBox="0 0 841 594"
   version="1.1"
   id="svg8"
   inkscape:version="1.0 (4035a4fb49, 2020-05-01)"
   sodipodi:docname="lasercut_layout.svg">
  <defs
     id="defs2">
    <linearGradient
       id="linearGradient3521"
       osb:paint="solid">
      <stop
         style="stop-color:#000000;stop-opacity:1;"
         offset="0"
         id="stop3519" />
    </linearGradient>
  </defs>
  <sodipodi:namedview
     id="base"
     pagecolor="#ffffff"
     bordercolor="#666666"
     borderopacity="1.0"
     inkscape:pageopacity="0.0"
     inkscape:pageshadow="2"
     inkscape:zoom="0.5"
     inkscape:cx="2602.285"
     inkscape:cy="860.14747"
     inkscape:document-units="mm"
     inkscape:current-layer="layer1"
     inkscape:document-rotation="0"
     showgrid="true"
     inkscape:window-width="1920"
     inkscape:window-height="1057"
     inkscape:window-x="1912"
     inkscape:window-y="-8"
     inkscape:window-maximized="1"
     units="mm"
     showguides="false" />
  <metadata
     id="metadata5">
    <rdf:RDF>
      <cc:Work
         rdf:about="">
        <dc:format>image/svg+xml</dc:format>
        <dc:type
           rdf:resource="http://purl.org/dc/dcmitype/StillImage" />
        <dc:title></dc:title>
      </cc:Work>
    </rdf:RDF>
  </metadata>
  <g
     inkscape:label="Taso 1"
     inkscape:groupmode="layer"
     id="layer1">
    <g
       id="panel1145"
       transform="translate(-46,-223.798)">
      <path
         id="path470"
         d="m 226.35,472.7 h 16.136 v -6.35 h 9.922 v 6.35 h 9.741 v -6.35 h 9.921 v 6.35 h 9.741 v -6.35 h 9.922 v 6.35 h 9.741 v -6.35 h 9.921 v 6.35 h 9.741 v -6.35 h 9.922 v 6.35 h 9.741 v -6.35 h 9.921 v 6.35 h 9.741 v -6.35 h 9.922 v 6.35 h 9.741 v -6.35 H 390"
         style="fill:none;stroke:#000000;stroke-width:0.02;stroke-miterlimit:4;stroke-dasharray:none" />
      <path
         id="path472"
         d="m 390,466.35 v 15.988 h 6.35 v 9.772 H 390 v 9.593 h 6.35 v 9.772 H 390 v 9.593 h 6.35 v 9.772 H 390 v 9.593 h 6.35 v 9.772 H 390 v 9.593 h 6.35 v 9.772 H 390 v 9.593 h 6.35 v 9.772 H 390 v 9.593 h 6.35 V 608.3 H 390 v 9.593 h 6.35 v 9.772 H 390 v 9.593 h 6.35 v 9.772 H 390 v 9.593 h 6.35 v 9.727"
         style="fill:none;stroke:#000000;stroke-width:0.02;stroke-miterlimit:4;stroke-dasharray:none" />
      <path
         id="path474"
         d="m 396.35,666.35 h -16.136 v 6.35 h -9.921 v -6.35 h -9.742 v 6.35 h -9.921 v -6.35 h -9.741 v 6.35 h -9.921 v -6.35 h -9.742 v 6.35 h -9.921 v -6.35 h -9.741 v 6.35 h -9.921 v -6.35 h -9.742 v 6.35 h -9.921 v -6.35 h -9.741 v 6.35 h -9.921 v -6.35 h -9.742 v 6.35 H 232.7"
         style="fill:none;stroke:#000000;stroke-width:0.02;stroke-miterlimit:4;stroke-dasharray:none" />
      <path
         id="path476"
         d="m 232.7,672.7 v -15.987 h -6.35 v -9.773 h 6.35 v -9.592 h -6.35 v -9.773 h 6.35 v -9.592 h -6.35 v -9.773 h 6.35 v -9.592 h -6.35 v -9.773 h 6.35 v -9.592 h -6.35 v -9.773 h 6.35 v -9.592 h -6.35 v -9.773 h 6.35 v -9.592 h -6.35 v -9.773 h 6.35 v -9.592 h -6.35 v -9.773 h 6.35 v -9.592 h -6.35 v -9.773 h 6.35 v -9.592 h -6.35 V 472.7"
         style="fill:none;stroke:#000000;stroke-width:0.02;stroke-miterlimit:4;stroke-dasharray:none" />
    </g>
    <g
       id="panel8348"
       transform="translate(-297.35435,120.873)">
      <path
         id="path509"
         d="m 305.72135,-104.53299 h 15.9875 v -6.35 h 9.7725 v 6.35 h 9.5925 v -6.35 h 9.7725 v 6.35 h 9.5925 v -6.35 h 9.7725 v 6.35 h 9.5925 v -6.35 h 9.7725 v 6.35 h 9.593 v -6.35 h 9.772 v 6.35 h 9.593 v -6.35 h 9.772 v 6.35 h 9.593 v -6.35 h 9.772 v 6.35 h 9.593 v -6.35 h 9.772 v 6.35 h 9.593 v -6.35 h 9.772 v 6.35 h 9.593 v -6.35 h 9.727"
         style="fill:none;stroke:#000000;stroke-width:0.02;stroke-miterlimit:4;stroke-dasharray:none" />
      <path
         id="path511"
         d="m 505.72135,-110.88299 v 16.182 h 6.35 v 9.968 h -6.35 v 9.787 h 6.35 v 9.967 h -6.35 v 9.787 h 6.35 v 9.968 h -6.35 v 9.787 h 6.35 v 9.967 h -6.35 v 9.787 h 6.35 v 9.968 h -6.35 v 9.787 h 6.35 v 9.967 h -6.35 v 9.788 h 6.35 v 9.967 h -6.35 v 9.787 h 6.35 v 9.967 h -6.35 v 9.788 h 6.35 v 9.967 h -6.35 v 9.787 h 6.35 v 9.967 h -6.35 v 9.788 h 6.35 v 9.922"
         style="fill:none;stroke:#000000;stroke-width:0.02;stroke-miterlimit:4;stroke-dasharray:none" />
      <path
         id="path513"
         d="m 512.07135,112.767 h -15.987 v 6.35 h -9.773 v -6.35 h -9.592 v 6.35 h -9.773 v -6.35 h -9.592 v 6.35 h -9.773 v -6.35 h -9.592 v 6.35 h -9.773 v -6.35 h -9.592 v 6.35 h -9.773 v -6.35 h -9.592 v 6.35 h -9.773 v -6.35 h -9.5925 v 6.35 h -9.7725 v -6.35 h -9.5925 v 6.35 h -9.7725 v -6.35 h -9.5925 v 6.35 h -9.7725 v -6.35 h -9.5925 v 6.35 h -9.7275"
         style="fill:none;stroke:#000000;stroke-width:0.02;stroke-miterlimit:4;stroke-dasharray:none" />
      <path
         id="path515"
         d="m 312.07135,119.117 v -16.18199 h -6.35 v -9.968 h 6.35 v -9.787 h -6.35 V 73.213 h 6.35 v -9.787 h -6.35 v -9.96799 h 6.35 V 43.671 h -6.35 v -9.967 h 6.35 v -9.787 h -6.35 v -9.968 h 6.35 V 4.162 h -6.35 v -9.967 h 6.35 v -9.788 h -6.35 v -9.967 h 6.35 v -9.78699 h -6.35 V -45.314 h 6.35 v -9.78799 h -6.35 v -9.967 h 6.35 v -9.787 h -6.35 v -9.967 h 6.35 v -9.788 h -6.35 v -9.922"
         style="fill:none;stroke:#000000;stroke-width:0.02;stroke-miterlimit:4;stroke-dasharray:none" />
      <rect
         style="fill:none;fill-rule:evenodd;stroke:#000000;stroke-width:0.02;stroke-miterlimit:4;stroke-dasharray:none;stroke-opacity:1"
         id="rect752"
         width="5.8117895"
         height="169.46179"
         x="401.88446"
         y="-80.040901" />
      <rect
         y="-80.363899"
         x="798.24261"
         height="169.46179"
         width="5.8117895"
         id="rect752-3"
         style="fill:none;fill-rule:evenodd;stroke:#000000;stroke-width:0.02;stroke-miterlimit:4;stroke-dasharray:none;stroke-opacity:1" />
      <rect
         y="197.36902"
         x="581.37836"
         height="63.625965"
         width="7.4759655"
         id="rect752-8"
         style="fill:none;fill-rule:evenodd;stroke:#000000;stroke-width:0.02;stroke-miterlimit:4;stroke-dasharray:none;stroke-opacity:1" />
      <rect
         style="fill:none;fill-rule:evenodd;stroke:#000000;stroke-width:0.02;stroke-miterlimit:4;stroke-dasharray:none;stroke-opacity:1"
         id="rect752-8-5"
         width="6.8009825"
         height="19.800983"
         x="734.99091"
         y="229.01453" />
      <rect
         y="248.79288"
         x="723.12805"
         height="6.1185451"
         width="29.768545"
         id="rect752-8-5-7"
         style="fill:none;fill-rule:evenodd;stroke:#000000;stroke-width:0.02;stroke-miterlimit:4;stroke-dasharray:none;stroke-opacity:1" />
      <rect
         style="fill:none;fill-rule:evenodd;stroke:#000000;stroke-width:0.02;stroke-miterlimit:4;stroke-dasharray:none;stroke-opacity:1"
         id="rect752-8-5-7-2"
         width="29.768545"
         height="6.1185451"
         x="547.44708"
         y="189.59473" />
      <rect
         y="127.127"
         x="302.40701"
         height="170.94731"
         width="170.94731"
         id="rect163"
         style="fill:none;fill-rule:evenodd;stroke:#000000;stroke-width:0.02;stroke-miterlimit:4;stroke-dasharray:none" />
      <rect
         y="-146.83958"
         x="-1061.8669"
         height="30.112326"
         width="231.11232"
         id="rect165"
         style="fill:none;fill-rule:evenodd;stroke:#000000;stroke-width:0.02;stroke-miterlimit:4;stroke-dasharray:none"
         transform="scale(-1)" />
      <rect
         y="-142.145"
         x="-847.25446"
         height="21.417461"
         width="5.7674608"
         id="rect167"
         style="fill:none;fill-rule:evenodd;stroke:#000000;stroke-width:0.02;stroke-miterlimit:4;stroke-dasharray:none"
         transform="scale(-1)" />
      <rect
         style="fill:none;fill-rule:evenodd;stroke:#000000;stroke-width:0.02;stroke-miterlimit:4;stroke-dasharray:none"
         id="rect167-2"
         width="5.7674608"
         height="21.417461"
         x="-878.9848"
         y="-142.145"
         transform="scale(-1)" />
      <rect
         y="-143.127"
         x="-1049.3544"
         height="21.417461"
         width="5.7674608"
         id="rect167-2-1"
         style="fill:none;fill-rule:evenodd;stroke:#000000;stroke-width:0.02;stroke-miterlimit:4;stroke-dasharray:none"
         transform="scale(-1)" />
      <rect
         style="fill:none;fill-rule:evenodd;stroke:#000000;stroke-width:0.02;stroke-miterlimit:4;stroke-dasharray:none"
         id="rect167-2-1-8"
         width="5.7674608"
         height="21.417461"
         x="-1031.9543"
         y="-143.127"
         transform="scale(-1)" />
      <rect
         style="fill:none;fill-rule:evenodd;stroke:#000000;stroke-width:0.02;stroke-miterlimit:4;stroke-dasharray:none"
         id="rect125"
         width="21.619579"
         height="33.469578"
         x="1106.7335"
         y="-37.482864" />
      <rect
         y="-117.68616"
         x="1083.1351"
         height="33.469578"
         width="21.619581"
         id="rect125-7"
         style="fill:none;fill-rule:evenodd;stroke:#000000;stroke-width:0.02;stroke-miterlimit:4;stroke-dasharray:none" />
      <rect
         style="fill:none;fill-rule:evenodd;stroke:#000000;stroke-width:0.02;stroke-miterlimit:4;stroke-dasharray:none"
         id="rect125-5"
         width="14.864083"
         height="6.2140832"
         x="1110.4902"
         y="-35.087082" />
      <rect
         y="-16.831068"
         x="1110.4902"
         height="6.2140832"
         width="14.864084"
         id="rect125-5-2"
         style="fill:none;fill-rule:evenodd;stroke:#000000;stroke-width:0.02;stroke-miterlimit:4;stroke-dasharray:none" />
      <rect
         y="-81.440926"
         x="1106.7335"
         height="33.469578"
         width="21.619581"
         id="rect125-9"
         style="fill:none;fill-rule:evenodd;stroke:#000000;stroke-width:0.02;stroke-miterlimit:4;stroke-dasharray:none" />
      <rect
         y="-79.045151"
         x="1110.4902"
         height="6.2140832"
         width="14.864084"
         id="rect125-5-7"
         style="fill:none;fill-rule:evenodd;stroke:#000000;stroke-width:0.02;stroke-miterlimit:4;stroke-dasharray:none" />
      <rect
         style="fill:none;fill-rule:evenodd;stroke:#000000;stroke-width:0.02;stroke-miterlimit:4;stroke-dasharray:none"
         id="rect125-5-2-2"
         width="14.864085"
         height="6.2140832"
         x="1110.4902"
         y="-60.789139" />
      <rect
         style="fill:none;fill-rule:evenodd;stroke:#000000;stroke-width:0.02;stroke-miterlimit:4;stroke-dasharray:none"
         id="rect125-5-2-4"
         width="6.1932235"
         height="19.843224"
         x="1091.1611"
         y="-112.71622" />
      <rect
         style="fill:none;fill-rule:evenodd;stroke:#000000;stroke-width:0.02;stroke-miterlimit:4;stroke-dasharray:none"
         id="rect125-7-2"
         width="21.619583"
         height="33.469578"
         x="1107.1351"
         y="-117.68616" />
      <rect
         y="-112.71622"
         x="1115.1611"
         height="19.843224"
         width="6.1932235"
         id="rect125-5-2-4-9"
         style="fill:none;fill-rule:evenodd;stroke:#000000;stroke-width:0.02;stroke-miterlimit:4;stroke-dasharray:none" />
      <rect
         style="fill:none;fill-rule:evenodd;stroke:#000000;stroke-width:0.02;stroke-miterlimit:4;stroke-dasharray:none"
         id="rect125-7-1"
         width="14.664559"
         height="38.364559"
         x="-1102.0189"
         y="2.7891376"
         transform="scale(-1)" />
      <rect
         y="42.424576"
         x="-1101.3544"
         height="38.364559"
         width="14.664559"
         id="rect125-7-1-9"
         style="fill:none;fill-rule:evenodd;stroke:#000000;stroke-width:0.02;stroke-miterlimit:4;stroke-dasharray:none"
         transform="scale(-1)" />
    </g>
    <g
       id="panel6588"
       transform="translate(-4.85,-221.692)">
      <path
         id="path557"
         d="m 226.35,232.7 h 16.136 v -6.35 h 9.922 v 6.35 h 9.741 v -6.35 h 9.921 v 6.35 h 9.741 v -6.35 h 9.922 v 6.35 h 9.741 v -6.35 h 9.921 v 6.35 h 9.741 v -6.35 h 9.922 v 6.35 h 9.741 v -6.35 h 9.921 v 6.35 h 9.741 v -6.35 h 9.922 v 6.35 h 9.741 v -6.35 H 390"
         style="fill:none;stroke:#000000;stroke-width:0.02;stroke-miterlimit:4;stroke-dasharray:none" />
      <path
         id="path559"
         d="m 390,226.35 v 16.182 h 6.35 V 252.5 H 390 v 9.787 h 6.35 v 9.967 H 390 v 9.787 h 6.35 v 9.968 H 390 v 9.787 h 6.35 v 9.967 H 390 v 9.787 h 6.35 v 9.968 H 390 v 9.787 h 6.35 v 9.967 H 390 v 9.788 h 6.35 v 9.967 H 390 v 9.787 h 6.35 v 9.967 H 390 v 9.788 h 6.35 v 9.967 H 390 v 9.787 h 6.35 v 9.967 H 390 v 9.788 h 6.35 V 450"
         style="fill:none;stroke:#000000;stroke-width:0.02;stroke-miterlimit:4;stroke-dasharray:none" />
      <path
         id="path561"
         d="m 396.35,450 h -16.136 v 6.35 h -9.921 V 450 h -9.742 v 6.35 H 350.63 V 450 h -9.741 v 6.35 h -9.921 V 450 h -9.742 v 6.35 h -9.921 V 450 h -9.741 v 6.35 h -9.921 V 450 h -9.742 v 6.35 H 271.98 V 450 h -9.741 v 6.35 h -9.921 V 450 h -9.742 v 6.35 H 232.7"
         style="fill:none;stroke:#000000;stroke-width:0.02;stroke-miterlimit:4;stroke-dasharray:none" />
      <path
         id="path563"
         d="m 232.7,456.35 v -16.182 h -6.35 V 430.2 h 6.35 v -9.787 h -6.35 v -9.967 h 6.35 v -9.787 h -6.35 v -9.968 h 6.35 v -9.787 h -6.35 v -9.967 h 6.35 v -9.787 h -6.35 v -9.968 h 6.35 v -9.787 h -6.35 v -9.967 h 6.35 v -9.788 h -6.35 v -9.967 h 6.35 v -9.787 h -6.35 v -9.967 h 6.35 v -9.788 h -6.35 v -9.967 h 6.35 v -9.787 h -6.35 v -9.967 h 6.35 v -9.788 h -6.35 V 232.7"
         style="fill:none;stroke:#000000;stroke-width:0.02;stroke-miterlimit:4;stroke-dasharray:none" />
    </g>
    <g
       id="panel9712"
       transform="translate(-9.733,-224.11)">
      <path
         id="path566"
         d="m 406.35,232.7 h 15.988 v -6.35 h 9.772 v 6.35 h 9.593 v -6.35 h 9.772 v 6.35 h 9.593 v -6.35 h 9.772 v 6.35 h 9.593 v -6.35 h 9.772 v 6.35 h 9.593 v -6.35 h 9.772 v 6.35 h 9.593 v -6.35 h 9.772 v 6.35 h 9.593 v -6.35 h 9.772 v 6.35 h 9.593 v -6.35 h 9.772 v 6.35 h 9.593 v -6.35 h 9.772 v 6.35 h 9.593 v -6.35 h 9.727"
         style="fill:none;stroke:#000000;stroke-width:0.02;stroke-miterlimit:4;stroke-dasharray:none" />
      <path
         id="path568"
         d="m 606.35,226.35 v 16.182 h 6.35 v 9.968 h -6.35 v 9.787 h 6.35 v 9.967 h -6.35 v 9.787 h 6.35 v 9.968 h -6.35 v 9.787 h 6.35 v 9.967 h -6.35 v 9.787 h 6.35 v 9.968 h -6.35 v 9.787 h 6.35 v 9.967 h -6.35 v 9.788 h 6.35 v 9.967 h -6.35 v 9.787 h 6.35 v 9.967 h -6.35 v 9.788 h 6.35 v 9.967 h -6.35 v 9.787 h 6.35 v 9.967 h -6.35 v 9.788 h 6.35 V 450"
         style="fill:none;stroke:#000000;stroke-width:0.02;stroke-miterlimit:4;stroke-dasharray:none" />
      <path
         id="path570"
         d="m 612.7,450 h -15.987 v 6.35 H 586.94 V 450 h -9.592 v 6.35 h -9.773 V 450 h -9.592 v 6.35 H 548.21 V 450 h -9.592 v 6.35 h -9.773 V 450 h -9.592 v 6.35 H 509.48 V 450 h -9.592 v 6.35 h -9.773 V 450 h -9.592 v 6.35 H 470.75 V 450 h -9.592 v 6.35 h -9.773 V 450 h -9.592 v 6.35 H 432.02 V 450 h -9.592 v 6.35 H 412.7"
         style="fill:none;stroke:#000000;stroke-width:0.02;stroke-miterlimit:4;stroke-dasharray:none" />
      <path
         id="path572"
         d="m 412.7,456.35 v -16.182 h -6.35 V 430.2 h 6.35 v -9.787 h -6.35 v -9.967 h 6.35 v -9.787 h -6.35 v -9.968 h 6.35 v -9.787 h -6.35 v -9.967 h 6.35 v -9.787 h -6.35 v -9.968 h 6.35 v -9.787 h -6.35 v -9.967 h 6.35 v -9.788 h -6.35 v -9.967 h 6.35 v -9.787 h -6.35 v -9.967 h 6.35 v -9.788 h -6.35 v -9.967 h 6.35 v -9.787 h -6.35 v -9.967 h 6.35 v -9.788 h -6.35 V 232.7"
         style="fill:none;stroke:#000000;stroke-width:0.02;stroke-miterlimit:4;stroke-dasharray:none" />
    </g>
    <g
       id="panel813"
       transform="translate(-13.05,-222.691)">
      <path
         id="path575"
         d="m 622.7,232.7 h 16.136 v -6.35 h 9.922 v 6.35 h 9.741 v -6.35 h 9.921 v 6.35 h 9.741 v -6.35 h 9.922 v 6.35 h 9.741 v -6.35 h 9.921 v 6.35 h 9.741 v -6.35 h 9.922 v 6.35 h 9.741 v -6.35 h 9.921 v 6.35 h 9.741 v -6.35 h 9.922 v 6.35 h 9.741 v -6.35 h 9.876"
         style="fill:none;stroke:#000000;stroke-width:0.02;stroke-miterlimit:4;stroke-dasharray:none;opacity:1;" />
      <path
         id="path577"
         d="m 786.35,226.35 v 16.182 h 6.35 v 9.968 h -6.35 v 9.787 h 6.35 v 9.967 h -6.35 v 9.787 h 6.35 v 9.968 h -6.35 v 9.787 h 6.35 v 9.967 h -6.35 v 9.787 h 6.35 v 9.968 h -6.35 v 9.787 h 6.35 v 9.967 h -6.35 v 9.788 h 6.35 v 9.967 h -6.35 v 9.787 h 6.35 v 9.967 h -6.35 v 9.788 h 6.35 v 9.967 h -6.35 v 9.787 h 6.35 v 9.967 h -6.35 v 9.788 h 6.35 V 450"
         style="fill:none;stroke:#000000;stroke-width:0.02;stroke-miterlimit:4;stroke-dasharray:none;opacity:1;" />
      <path
         id="path579"
         d="m 792.7,450 h -16.136 v 6.35 h -9.921 V 450 h -9.742 v 6.35 H 746.98 V 450 h -9.741 v 6.35 h -9.921 V 450 h -9.742 v 6.35 h -9.921 V 450 h -9.741 v 6.35 h -9.921 V 450 h -9.742 v 6.35 H 668.33 V 450 h -9.741 v 6.35 h -9.921 V 450 h -9.742 v 6.35 h -9.876"
         style="fill:none;stroke:#000000;stroke-width:0.02;stroke-miterlimit:4;stroke-dasharray:none;opacity:1;" />
      <path
         id="path581"
         d="M 629.05,456.35 V 440.168 H 622.7 V 430.2 h 6.35 v -9.787 h -6.35 v -9.967 h 6.35 v -9.787 h -6.35 v -9.968 h 6.35 v -9.787 h -6.35 v -9.967 h 6.35 v -9.787 h -6.35 v -9.968 h 6.35 v -9.787 h -6.35 v -9.967 h 6.35 v -9.788 h -6.35 v -9.967 h 6.35 v -9.787 h -6.35 v -9.967 h 6.35 v -9.788 h -6.35 v -9.967 h 6.35 v -9.787 h -6.35 v -9.967 h 6.35 v -9.788 H 622.7 V 232.7"
         style="fill:none;stroke:#000000;stroke-width:0.02;stroke-miterlimit:4;stroke-dasharray:none;opacity:1;" />
    </g>
    <g
       id="panel4978"
       transform="translate(130,227.415)">
      <path
         id="path584"
         d="m 226.35,16.35 h 16.136 V 10 h 9.922 v 6.35 h 9.741 V 10 h 9.921 v 6.35 h 9.741 V 10 h 9.922 v 6.35 h 9.741 V 10 h 9.921 v 6.35 h 9.741 V 10 h 9.922 v 6.35 h 9.741 V 10 h 9.921 v 6.35 h 9.741 V 10 h 9.922 v 6.35 h 9.741 V 10 H 390"
         style="fill:none;stroke:#000000;stroke-width:0.02;stroke-miterlimit:4;stroke-dasharray:none" />
      <path
         id="path586"
         d="m 390,10 v 15.9875 h 6.35 V 35.76 H 390 v 9.5925 h 6.35 V 55.125 H 390 v 9.5925 h 6.35 V 74.49 H 390 v 9.5925 h 6.35 V 93.855 H 390 v 9.593 h 6.35 v 9.772 H 390 v 9.593 h 6.35 v 9.772 H 390 v 9.593 h 6.35 v 9.772 H 390 v 9.593 h 6.35 v 9.772 H 390 v 9.593 h 6.35 v 9.772 H 390 v 9.593 h 6.35 V 210"
         style="fill:none;stroke:#000000;stroke-width:0.02;stroke-miterlimit:4;stroke-dasharray:none" />
      <path
         id="path588"
         d="m 396.35,210 h -16.136 v 6.35 h -9.921 V 210 h -9.742 v 6.35 H 350.63 V 210 h -9.741 v 6.35 h -9.921 V 210 h -9.742 v 6.35 h -9.921 V 210 h -9.741 v 6.35 h -9.921 V 210 h -9.742 v 6.35 H 271.98 V 210 h -9.741 v 6.35 h -9.921 V 210 h -9.742 v 6.35 H 232.7"
         style="fill:none;stroke:#000000;stroke-width:0.02;stroke-miterlimit:4;stroke-dasharray:none" />
      <path
         id="path590"
         d="m 232.7,216.35 v -15.987 h -6.35 v -9.773 h 6.35 v -9.592 h -6.35 v -9.773 h 6.35 v -9.592 h -6.35 v -9.773 h 6.35 v -9.592 h -6.35 v -9.773 h 6.35 v -9.592 h -6.35 v -9.773 h 6.35 v -9.592 h -6.35 v -9.773 h 6.35 v -9.5925 h -6.35 V 74.4 h 6.35 v -9.5925 h -6.35 V 55.035 h 6.35 v -9.5925 h -6.35 V 35.67 h 6.35 v -9.5925 h -6.35 V 16.35"
         style="fill:none;stroke:#000000;stroke-width:0.02;stroke-miterlimit:4;stroke-dasharray:none" />
    </g>
    <circle
       style="fill:none;stroke:#000000;stroke-width:0.02;stroke-miterlimit:4;stroke-dasharray:none;stroke-opacity:1"
       id="path3549"
       cx="553.17798"
       cy="53.242191"
       r="20" />
    <circle
       style="fill:none;stroke:#000000;stroke-width:0.02;stroke-miterlimit:4;stroke-dasharray:none;stroke-opacity:1"
       id="path3555"
       cx="516.66699"
       cy="130.79001"
       r="8.0500002" />
    <circle
       r="20"
       cy="184.25822"
       cx="561581.5"
       id="path3549-9"
       style="fill:none;stroke:#000000;stroke-width:1;stroke-miterlimit:4;stroke-dasharray:none;stroke-opacity:1" />
    <circle
       r="8.0500002"
       cy="103.75302"
       cx="516.66699"
       id="path3555-3"
       style="fill:none;stroke:#000000;stroke-width:0.02;stroke-miterlimit:4;stroke-dasharray:none;stroke-opacity:1" />
    <circle
       r="20"
       cy="181.242"
       cx="553.17798"
       id="path3549-6"
       style="fill:none;stroke:#000000;stroke-width:0.02;stroke-miterlimit:4;stroke-dasharray:none;stroke-opacity:1" />
    <circle
       style="fill:none;stroke:#000000;stroke-width:0.02;stroke-miterlimit:4;stroke-dasharray:none;stroke-opacity:1"
       id="path3620"
       cx="452.71698"
       cy="118.263"
       r="17.5" />
    <path
       id="path1631"
       d="m 808.9705,123.36691 v 110.00002 h 19.97999 v 9.97998 h -22.9802 v 19.97998 h -13.97998 v -19.97998 h -22.9798 v -9.97998 h 19.97998 V 123.36691 Z"
       style="fill:none;stroke:#000000;stroke-width:0.264583px;stroke-linecap:butt;stroke-linejoin:miter;stroke-opacity:1" />
    <path
       style="fill:none;stroke:#000000;stroke-width:0.264583px;stroke-linecap:butt;stroke-linejoin:miter;stroke-opacity:1"
       d="m 699.70279,290.62301 h 110.00002 v 19.98 h 9.97999 v -22.9802 h 19.97998 V 273.64283 H 819.6828 v -22.97981 h -9.97999 v 19.97999 H 699.70279 Z"
       id="path1631-9" />
  </g>
</svg>
