<?xml version="1.0" encoding="UTF-8" standalone="no"?>
<svg
   xmlns:osb="http://www.openswatchbook.org/uri/2009/osb"
   xmlns:dc="http://purl.org/dc/elements/1.1/"
   xmlns:cc="http://creativecommons.org/ns#"
   xmlns:rdf="http://www.w3.org/1999/02/22-rdf-syntax-ns#"
   xmlns:svg="http://www.w3.org/2000/svg"
   xmlns="http://www.w3.org/2000/svg"
   xmlns:sodipodi="http://sodipodi.sourceforge.net/DTD/sodipodi-0.dtd"
   xmlns:inkscape="http://www.inkscape.org/namespaces/inkscape"
   sodipodi:docname="lasercut_layout.svg"
   inkscape:version="1.0 (4035a4fb49, 2020-05-01)"
   id="svg8"
   version="1.1"
   viewBox="0 0 841 594"
   height="594mm"
   width="841mm">
  <defs
     id="defs2">
    <linearGradient
       osb:paint="solid"
       id="linearGradient3521">
      <stop
         id="stop3519"
         offset="0"
         style="stop-color:#000000;stop-opacity:1;" />
    </linearGradient>
  </defs>
  <sodipodi:namedview
     showguides="false"
     units="mm"
     inkscape:window-maximized="1"
     inkscape:window-y="-8"
     inkscape:window-x="1912"
     inkscape:window-height="1057"
     inkscape:window-width="1920"
     showgrid="true"
     inkscape:document-rotation="0"
     inkscape:current-layer="layer1"
     inkscape:document-units="mm"
     inkscape:cy="834.0891"
     inkscape:cx="1616.0339"
     inkscape:zoom="0.5"
     inkscape:pageshadow="2"
     inkscape:pageopacity="0.0"
     borderopacity="1.0"
     bordercolor="#666666"
     pagecolor="#ffffff"
     id="base" />
  <metadata
     id="metadata5">
    <rdf:RDF>
      <cc:Work
         rdf:about="">
        <dc:format>image/svg+xml</dc:format>
        <dc:type
           rdf:resource="http://purl.org/dc/dcmitype/StillImage" />
        <dc:title />
      </cc:Work>
    </rdf:RDF>
  </metadata>
  <g
     id="layer1"
     inkscape:groupmode="layer"
     inkscape:label="Taso 1">
    <g
       transform="translate(-46,-223.798)"
       id="panel1145">
      <path
         style="fill:none;stroke:#000000;stroke-width:0.02;stroke-miterlimit:4;stroke-dasharray:none"
         d="m 226.35,472.7 h 16.136 v -6.35 h 9.922 v 6.35 h 9.741 v -6.35 h 9.921 v 6.35 h 9.741 v -6.35 h 9.922 v 6.35 h 9.741 v -6.35 h 9.921 v 6.35 h 9.741 v -6.35 h 9.922 v 6.35 h 9.741 v -6.35 h 9.921 v 6.35 h 9.741 v -6.35 h 9.922 v 6.35 h 9.741 v -6.35 H 390"
         id="path470" />
      <path
         style="fill:none;stroke:#000000;stroke-width:0.02;stroke-miterlimit:4;stroke-dasharray:none"
         d="m 390,466.35 v 15.988 h 6.35 v 9.772 H 390 v 9.593 h 6.35 v 9.772 H 390 v 9.593 h 6.35 v 9.772 H 390 v 9.593 h 6.35 v 9.772 H 390 v 9.593 h 6.35 v 9.772 H 390 v 9.593 h 6.35 v 9.772 H 390 v 9.593 h 6.35 V 608.3 H 390 v 9.593 h 6.35 v 9.772 H 390 v 9.593 h 6.35 v 9.772 H 390 v 9.593 h 6.35 v 9.727"
         id="path472" />
      <path
         style="fill:none;stroke:#000000;stroke-width:0.02;stroke-miterlimit:4;stroke-dasharray:none"
         d="m 396.35,666.35 h -16.136 v 6.35 h -9.921 v -6.35 h -9.742 v 6.35 h -9.921 v -6.35 h -9.741 v 6.35 h -9.921 v -6.35 h -9.742 v 6.35 h -9.921 v -6.35 h -9.741 v 6.35 h -9.921 v -6.35 h -9.742 v 6.35 h -9.921 v -6.35 h -9.741 v 6.35 h -9.921 v -6.35 h -9.742 v 6.35 H 232.7"
         id="path474" />
      <path
         style="fill:none;stroke:#000000;stroke-width:0.02;stroke-miterlimit:4;stroke-dasharray:none"
         d="m 232.7,672.7 v -15.987 h -6.35 v -9.773 h 6.35 v -9.592 h -6.35 v -9.773 h 6.35 v -9.592 h -6.35 v -9.773 h 6.35 v -9.592 h -6.35 v -9.773 h 6.35 v -9.592 h -6.35 v -9.773 h 6.35 v -9.592 h -6.35 v -9.773 h 6.35 v -9.592 h -6.35 v -9.773 h 6.35 v -9.592 h -6.35 v -9.773 h 6.35 v -9.592 h -6.35 v -9.773 h 6.35 v -9.592 h -6.35 V 472.7"
         id="path476" />
    </g>
    <g
       transform="translate(-297.35435,120.873)"
       id="panel8348">
      <path
         style="fill:none;stroke:#000000;stroke-width:0.02;stroke-miterlimit:4;stroke-dasharray:none"
         d="m 305.72135,-104.53299 h 15.9875 v -6.35 h 9.7725 v 6.35 h 9.5925 v -6.35 h 9.7725 v 6.35 h 9.5925 v -6.35 h 9.7725 v 6.35 h 9.5925 v -6.35 h 9.7725 v 6.35 h 9.593 v -6.35 h 9.772 v 6.35 h 9.593 v -6.35 h 9.772 v 6.35 h 9.593 v -6.35 h 9.772 v 6.35 h 9.593 v -6.35 h 9.772 v 6.35 h 9.593 v -6.35 h 9.772 v 6.35 h 9.593 v -6.35 h 9.727"
         id="path509" />
      <path
         style="fill:none;stroke:#000000;stroke-width:0.02;stroke-miterlimit:4;stroke-dasharray:none"
         d="m 505.72135,-110.88299 v 16.182 h 6.35 v 9.968 h -6.35 v 9.787 h 6.35 v 9.967 h -6.35 v 9.787 h 6.35 v 9.968 h -6.35 v 9.787 h 6.35 v 9.967 h -6.35 v 9.787 h 6.35 v 9.968 h -6.35 v 9.787 h 6.35 v 9.967 h -6.35 v 9.788 h 6.35 v 9.967 h -6.35 v 9.787 h 6.35 v 9.967 h -6.35 v 9.788 h 6.35 v 9.967 h -6.35 v 9.787 h 6.35 v 9.967 h -6.35 v 9.788 h 6.35 v 9.922"
         id="path511" />
      <path
         style="fill:none;stroke:#000000;stroke-width:0.02;stroke-miterlimit:4;stroke-dasharray:none"
         d="m 512.07135,112.767 h -15.987 v 6.35 h -9.773 v -6.35 h -9.592 v 6.35 h -9.773 v -6.35 h -9.592 v 6.35 h -9.773 v -6.35 h -9.592 v 6.35 h -9.773 v -6.35 h -9.592 v 6.35 h -9.773 v -6.35 h -9.592 v 6.35 h -9.773 v -6.35 h -9.5925 v 6.35 h -9.7725 v -6.35 h -9.5925 v 6.35 h -9.7725 v -6.35 h -9.5925 v 6.35 h -9.7725 v -6.35 h -9.5925 v 6.35 h -9.7275"
         id="path513" />
      <path
         style="fill:none;stroke:#000000;stroke-width:0.02;stroke-miterlimit:4;stroke-dasharray:none"
         d="m 312.07135,119.117 v -16.18199 h -6.35 v -9.968 h 6.35 v -9.787 h -6.35 V 73.213 h 6.35 v -9.787 h -6.35 v -9.96799 h 6.35 V 43.671 h -6.35 v -9.967 h 6.35 v -9.787 h -6.35 v -9.968 h 6.35 V 4.162 h -6.35 v -9.967 h 6.35 v -9.788 h -6.35 v -9.967 h 6.35 v -9.78699 h -6.35 V -45.314 h 6.35 v -9.78799 h -6.35 v -9.967 h 6.35 v -9.787 h -6.35 v -9.967 h 6.35 v -9.788 h -6.35 v -9.922"
         id="path515" />
      <rect
         y="-80.040901"
         x="401.88446"
         height="169.46179"
         width="5.8117895"
         id="rect752"
         style="fill:none;fill-rule:evenodd;stroke:#000000;stroke-width:0.02;stroke-miterlimit:4;stroke-dasharray:none;stroke-opacity:1" />
      <rect
         style="fill:none;fill-rule:evenodd;stroke:#000000;stroke-width:0.02;stroke-miterlimit:4;stroke-dasharray:none;stroke-opacity:1"
         id="rect752-3"
         width="5.8117895"
         height="169.46179"
         x="798.24261"
         y="-80.363899" />
      <rect
         style="fill:none;fill-rule:evenodd;stroke:#000000;stroke-width:0.02;stroke-miterlimit:4;stroke-dasharray:none;stroke-opacity:1"
         id="rect752-8"
         width="7.4759655"
         height="63.625965"
         x="581.37836"
         y="197.36902" />
      <rect
         y="229.01453"
         x="734.99091"
         height="19.800983"
         width="6.8009825"
         id="rect752-8-5"
         style="fill:none;fill-rule:evenodd;stroke:#000000;stroke-width:0.02;stroke-miterlimit:4;stroke-dasharray:none;stroke-opacity:1" />
      <rect
         style="fill:none;fill-rule:evenodd;stroke:#000000;stroke-width:0.02;stroke-miterlimit:4;stroke-dasharray:none;stroke-opacity:1"
         id="rect752-8-5-7"
         width="29.768545"
         height="6.1185451"
         x="723.12805"
         y="248.79288" />
      <rect
         y="189.59473"
         x="547.44708"
         height="6.1185451"
         width="29.768545"
         id="rect752-8-5-7-2"
         style="fill:none;fill-rule:evenodd;stroke:#000000;stroke-width:0.02;stroke-miterlimit:4;stroke-dasharray:none;stroke-opacity:1" />
      <rect
         style="fill:none;fill-rule:evenodd;stroke:#000000;stroke-width:0.02;stroke-miterlimit:4;stroke-dasharray:none"
         id="rect163"
         width="170.94731"
         height="170.94731"
         x="302.40701"
         y="127.127" />
      <rect
         transform="scale(-1)"
         style="fill:none;fill-rule:evenodd;stroke:#000000;stroke-width:0.02;stroke-miterlimit:4;stroke-dasharray:none"
         id="rect165"
         width="231.11232"
         height="30.112326"
         x="-1061.8669"
         y="-146.83958" />
      <rect
         transform="scale(-1)"
         style="fill:none;fill-rule:evenodd;stroke:#000000;stroke-width:0.02;stroke-miterlimit:4;stroke-dasharray:none"
         id="rect167"
         width="5.7674608"
         height="21.417461"
         x="-847.25446"
         y="-142.145" />
      <rect
         transform="scale(-1)"
         y="-142.145"
         x="-878.9848"
         height="21.417461"
         width="5.7674608"
         id="rect167-2"
         style="fill:none;fill-rule:evenodd;stroke:#000000;stroke-width:0.02;stroke-miterlimit:4;stroke-dasharray:none" />
      <rect
         transform="scale(-1)"
         style="fill:none;fill-rule:evenodd;stroke:#000000;stroke-width:0.02;stroke-miterlimit:4;stroke-dasharray:none"
         id="rect167-2-1"
         width="5.7674608"
         height="21.417461"
         x="-1049.3544"
         y="-143.127" />
      <rect
         transform="scale(-1)"
         y="-143.127"
         x="-1031.9543"
         height="21.417461"
         width="5.7674608"
         id="rect167-2-1-8"
         style="fill:none;fill-rule:evenodd;stroke:#000000;stroke-width:0.02;stroke-miterlimit:4;stroke-dasharray:none" />
      <rect
         y="-37.482864"
         x="1106.7335"
         height="33.469578"
         width="21.619579"
         id="rect125"
         style="fill:none;fill-rule:evenodd;stroke:#000000;stroke-width:0.02;stroke-miterlimit:4;stroke-dasharray:none" />
      <rect
         style="fill:none;fill-rule:evenodd;stroke:#000000;stroke-width:0.02;stroke-miterlimit:4;stroke-dasharray:none"
         id="rect125-7"
         width="21.619581"
         height="33.469578"
         x="1083.1351"
         y="-117.68616" />
      <rect
         y="-35.087082"
         x="1110.4902"
         height="6.2140832"
         width="14.864083"
         id="rect125-5"
         style="fill:none;fill-rule:evenodd;stroke:#000000;stroke-width:0.02;stroke-miterlimit:4;stroke-dasharray:none" />
      <rect
         style="fill:none;fill-rule:evenodd;stroke:#000000;stroke-width:0.02;stroke-miterlimit:4;stroke-dasharray:none"
         id="rect125-5-2"
         width="14.864084"
         height="6.2140832"
         x="1110.4902"
         y="-16.831068" />
      <rect
         style="fill:none;fill-rule:evenodd;stroke:#000000;stroke-width:0.02;stroke-miterlimit:4;stroke-dasharray:none"
         id="rect125-9"
         width="21.619581"
         height="33.469578"
         x="1106.7335"
         y="-81.440926" />
      <rect
         style="fill:none;fill-rule:evenodd;stroke:#000000;stroke-width:0.02;stroke-miterlimit:4;stroke-dasharray:none"
         id="rect125-5-7"
         width="14.864084"
         height="6.2140832"
         x="1110.4902"
         y="-79.045151" />
      <rect
         y="-60.789139"
         x="1110.4902"
         height="6.2140832"
         width="14.864085"
         id="rect125-5-2-2"
         style="fill:none;fill-rule:evenodd;stroke:#000000;stroke-width:0.02;stroke-miterlimit:4;stroke-dasharray:none" />
      <rect
         y="-112.71622"
         x="1091.1611"
         height="19.843224"
         width="6.1932235"
         id="rect125-5-2-4"
         style="fill:none;fill-rule:evenodd;stroke:#000000;stroke-width:0.02;stroke-miterlimit:4;stroke-dasharray:none" />
      <rect
         y="-117.68616"
         x="1107.1351"
         height="33.469578"
         width="21.619583"
         id="rect125-7-2"
         style="fill:none;fill-rule:evenodd;stroke:#000000;stroke-width:0.02;stroke-miterlimit:4;stroke-dasharray:none" />
      <rect
         style="fill:none;fill-rule:evenodd;stroke:#000000;stroke-width:0.02;stroke-miterlimit:4;stroke-dasharray:none"
         id="rect125-5-2-4-9"
         width="6.1932235"
         height="19.843224"
         x="1115.1611"
         y="-112.71622" />
      <rect
         transform="scale(-1)"
         y="2.7891376"
         x="-1102.0189"
         height="38.364559"
         width="14.664559"
         id="rect125-7-1"
         style="fill:none;fill-rule:evenodd;stroke:#000000;stroke-width:0.02;stroke-miterlimit:4;stroke-dasharray:none" />
      <rect
         transform="scale(-1)"
         style="fill:none;fill-rule:evenodd;stroke:#000000;stroke-width:0.02;stroke-miterlimit:4;stroke-dasharray:none"
         id="rect125-7-1-9"
         width="14.664559"
         height="38.364559"
         x="-1101.3544"
         y="42.424576" />
    </g>
    <g
       transform="translate(-4.85,-221.692)"
       id="panel6588">
      <path
         style="fill:none;stroke:#000000;stroke-width:0.02;stroke-miterlimit:4;stroke-dasharray:none"
         d="m 226.35,232.7 h 16.136 v -6.35 h 9.922 v 6.35 h 9.741 v -6.35 h 9.921 v 6.35 h 9.741 v -6.35 h 9.922 v 6.35 h 9.741 v -6.35 h 9.921 v 6.35 h 9.741 v -6.35 h 9.922 v 6.35 h 9.741 v -6.35 h 9.921 v 6.35 h 9.741 v -6.35 h 9.922 v 6.35 h 9.741 v -6.35 H 390"
         id="path557" />
      <path
         style="fill:none;stroke:#000000;stroke-width:0.02;stroke-miterlimit:4;stroke-dasharray:none"
         d="m 390,226.35 v 16.182 h 6.35 V 252.5 H 390 v 9.787 h 6.35 v 9.967 H 390 v 9.787 h 6.35 v 9.968 H 390 v 9.787 h 6.35 v 9.967 H 390 v 9.787 h 6.35 v 9.968 H 390 v 9.787 h 6.35 v 9.967 H 390 v 9.788 h 6.35 v 9.967 H 390 v 9.787 h 6.35 v 9.967 H 390 v 9.788 h 6.35 v 9.967 H 390 v 9.787 h 6.35 v 9.967 H 390 v 9.788 h 6.35 V 450"
         id="path559" />
      <path
         style="fill:none;stroke:#000000;stroke-width:0.02;stroke-miterlimit:4;stroke-dasharray:none"
         d="m 396.35,450 h -16.136 v 6.35 h -9.921 V 450 h -9.742 v 6.35 H 350.63 V 450 h -9.741 v 6.35 h -9.921 V 450 h -9.742 v 6.35 h -9.921 V 450 h -9.741 v 6.35 h -9.921 V 450 h -9.742 v 6.35 H 271.98 V 450 h -9.741 v 6.35 h -9.921 V 450 h -9.742 v 6.35 H 232.7"
         id="path561" />
      <path
         style="fill:none;stroke:#000000;stroke-width:0.02;stroke-miterlimit:4;stroke-dasharray:none"
         d="m 232.7,456.35 v -16.182 h -6.35 V 430.2 h 6.35 v -9.787 h -6.35 v -9.967 h 6.35 v -9.787 h -6.35 v -9.968 h 6.35 v -9.787 h -6.35 v -9.967 h 6.35 v -9.787 h -6.35 v -9.968 h 6.35 v -9.787 h -6.35 v -9.967 h 6.35 v -9.788 h -6.35 v -9.967 h 6.35 v -9.787 h -6.35 v -9.967 h 6.35 v -9.788 h -6.35 v -9.967 h 6.35 v -9.787 h -6.35 v -9.967 h 6.35 v -9.788 h -6.35 V 232.7"
         id="path563" />
    </g>
    <g
       transform="translate(-9.733,-224.11)"
       id="panel9712">
      <path
         style="fill:none;stroke:#000000;stroke-width:0.02;stroke-miterlimit:4;stroke-dasharray:none"
         d="m 406.35,232.7 h 15.988 v -6.35 h 9.772 v 6.35 h 9.593 v -6.35 h 9.772 v 6.35 h 9.593 v -6.35 h 9.772 v 6.35 h 9.593 v -6.35 h 9.772 v 6.35 h 9.593 v -6.35 h 9.772 v 6.35 h 9.593 v -6.35 h 9.772 v 6.35 h 9.593 v -6.35 h 9.772 v 6.35 h 9.593 v -6.35 h 9.772 v 6.35 h 9.593 v -6.35 h 9.772 v 6.35 h 9.593 v -6.35 h 9.727"
         id="path566" />
      <path
         style="fill:none;stroke:#000000;stroke-width:0.02;stroke-miterlimit:4;stroke-dasharray:none"
         d="m 606.35,226.35 v 16.182 h 6.35 v 9.968 h -6.35 v 9.787 h 6.35 v 9.967 h -6.35 v 9.787 h 6.35 v 9.968 h -6.35 v 9.787 h 6.35 v 9.967 h -6.35 v 9.787 h 6.35 v 9.968 h -6.35 v 9.787 h 6.35 v 9.967 h -6.35 v 9.788 h 6.35 v 9.967 h -6.35 v 9.787 h 6.35 v 9.967 h -6.35 v 9.788 h 6.35 v 9.967 h -6.35 v 9.787 h 6.35 v 9.967 h -6.35 v 9.788 h 6.35 V 450"
         id="path568" />
      <path
         style="fill:none;stroke:#000000;stroke-width:0.02;stroke-miterlimit:4;stroke-dasharray:none"
         d="m 612.7,450 h -15.987 v 6.35 H 586.94 V 450 h -9.592 v 6.35 h -9.773 V 450 h -9.592 v 6.35 H 548.21 V 450 h -9.592 v 6.35 h -9.773 V 450 h -9.592 v 6.35 H 509.48 V 450 h -9.592 v 6.35 h -9.773 V 450 h -9.592 v 6.35 H 470.75 V 450 h -9.592 v 6.35 h -9.773 V 450 h -9.592 v 6.35 H 432.02 V 450 h -9.592 v 6.35 H 412.7"
         id="path570" />
      <path
         style="fill:none;stroke:#000000;stroke-width:0.02;stroke-miterlimit:4;stroke-dasharray:none"
         d="m 412.7,456.35 v -16.182 h -6.35 V 430.2 h 6.35 v -9.787 h -6.35 v -9.967 h 6.35 v -9.787 h -6.35 v -9.968 h 6.35 v -9.787 h -6.35 v -9.967 h 6.35 v -9.787 h -6.35 v -9.968 h 6.35 v -9.787 h -6.35 v -9.967 h 6.35 v -9.788 h -6.35 v -9.967 h 6.35 v -9.787 h -6.35 v -9.967 h 6.35 v -9.788 h -6.35 v -9.967 h 6.35 v -9.787 h -6.35 v -9.967 h 6.35 v -9.788 h -6.35 V 232.7"
         id="path572" />
    </g>
    <g
       transform="translate(-13.05,-222.691)"
       id="panel813">
      <path
         style="fill:none;stroke:#000000;stroke-width:0.02;stroke-miterlimit:4;stroke-dasharray:none;opacity:1;"
         d="m 622.7,232.7 h 16.136 v -6.35 h 9.922 v 6.35 h 9.741 v -6.35 h 9.921 v 6.35 h 9.741 v -6.35 h 9.922 v 6.35 h 9.741 v -6.35 h 9.921 v 6.35 h 9.741 v -6.35 h 9.922 v 6.35 h 9.741 v -6.35 h 9.921 v 6.35 h 9.741 v -6.35 h 9.922 v 6.35 h 9.741 v -6.35 h 9.876"
         id="path575" />
      <path
         style="fill:none;stroke:#000000;stroke-width:0.02;stroke-miterlimit:4;stroke-dasharray:none;opacity:1;"
         d="m 786.35,226.35 v 16.182 h 6.35 v 9.968 h -6.35 v 9.787 h 6.35 v 9.967 h -6.35 v 9.787 h 6.35 v 9.968 h -6.35 v 9.787 h 6.35 v 9.967 h -6.35 v 9.787 h 6.35 v 9.968 h -6.35 v 9.787 h 6.35 v 9.967 h -6.35 v 9.788 h 6.35 v 9.967 h -6.35 v 9.787 h 6.35 v 9.967 h -6.35 v 9.788 h 6.35 v 9.967 h -6.35 v 9.787 h 6.35 v 9.967 h -6.35 v 9.788 h 6.35 V 450"
         id="path577" />
      <path
         style="fill:none;stroke:#000000;stroke-width:0.02;stroke-miterlimit:4;stroke-dasharray:none;opacity:1;"
         d="m 792.7,450 h -16.136 v 6.35 h -9.921 V 450 h -9.742 v 6.35 H 746.98 V 450 h -9.741 v 6.35 h -9.921 V 450 h -9.742 v 6.35 h -9.921 V 450 h -9.741 v 6.35 h -9.921 V 450 h -9.742 v 6.35 H 668.33 V 450 h -9.741 v 6.35 h -9.921 V 450 h -9.742 v 6.35 h -9.876"
         id="path579" />
      <path
         style="fill:none;stroke:#000000;stroke-width:0.02;stroke-miterlimit:4;stroke-dasharray:none;opacity:1;"
         d="M 629.05,456.35 V 440.168 H 622.7 V 430.2 h 6.35 v -9.787 h -6.35 v -9.967 h 6.35 v -9.787 h -6.35 v -9.968 h 6.35 v -9.787 h -6.35 v -9.967 h 6.35 v -9.787 h -6.35 v -9.968 h 6.35 v -9.787 h -6.35 v -9.967 h 6.35 v -9.788 h -6.35 v -9.967 h 6.35 v -9.787 h -6.35 v -9.967 h 6.35 v -9.788 h -6.35 v -9.967 h 6.35 v -9.787 h -6.35 v -9.967 h 6.35 v -9.788 H 622.7 V 232.7"
         id="path581" />
    </g>
    <g
       transform="translate(130,227.415)"
       id="panel4978">
      <path
         style="fill:none;stroke:#000000;stroke-width:0.02;stroke-miterlimit:4;stroke-dasharray:none"
         d="m 226.35,16.35 h 16.136 V 10 h 9.922 v 6.35 h 9.741 V 10 h 9.921 v 6.35 h 9.741 V 10 h 9.922 v 6.35 h 9.741 V 10 h 9.921 v 6.35 h 9.741 V 10 h 9.922 v 6.35 h 9.741 V 10 h 9.921 v 6.35 h 9.741 V 10 h 9.922 v 6.35 h 9.741 V 10 H 390"
         id="path584" />
      <path
         style="fill:none;stroke:#000000;stroke-width:0.02;stroke-miterlimit:4;stroke-dasharray:none"
         d="m 390,10 v 15.9875 h 6.35 V 35.76 H 390 v 9.5925 h 6.35 V 55.125 H 390 v 9.5925 h 6.35 V 74.49 H 390 v 9.5925 h 6.35 V 93.855 H 390 v 9.593 h 6.35 v 9.772 H 390 v 9.593 h 6.35 v 9.772 H 390 v 9.593 h 6.35 v 9.772 H 390 v 9.593 h 6.35 v 9.772 H 390 v 9.593 h 6.35 v 9.772 H 390 v 9.593 h 6.35 V 210"
         id="path586" />
      <path
         style="fill:none;stroke:#000000;stroke-width:0.02;stroke-miterlimit:4;stroke-dasharray:none"
         d="m 396.35,210 h -16.136 v 6.35 h -9.921 V 210 h -9.742 v 6.35 H 350.63 V 210 h -9.741 v 6.35 h -9.921 V 210 h -9.742 v 6.35 h -9.921 V 210 h -9.741 v 6.35 h -9.921 V 210 h -9.742 v 6.35 H 271.98 V 210 h -9.741 v 6.35 h -9.921 V 210 h -9.742 v 6.35 H 232.7"
         id="path588" />
      <path
         style="fill:none;stroke:#000000;stroke-width:0.02;stroke-miterlimit:4;stroke-dasharray:none"
         d="m 232.7,216.35 v -15.987 h -6.35 v -9.773 h 6.35 v -9.592 h -6.35 v -9.773 h 6.35 v -9.592 h -6.35 v -9.773 h 6.35 v -9.592 h -6.35 v -9.773 h 6.35 v -9.592 h -6.35 v -9.773 h 6.35 v -9.592 h -6.35 v -9.773 h 6.35 v -9.5925 h -6.35 V 74.4 h 6.35 v -9.5925 h -6.35 V 55.035 h 6.35 v -9.5925 h -6.35 V 35.67 h 6.35 v -9.5925 h -6.35 V 16.35"
         id="path590" />
    </g>
    <circle
       r="20"
       cy="53.242191"
       cx="553.17798"
       id="path3549"
       style="fill:none;stroke:#000000;stroke-width:0.02;stroke-miterlimit:4;stroke-dasharray:none;stroke-opacity:1" />
    <circle
       r="8.0500002"
       cy="130.79001"
       cx="516.66699"
       id="path3555"
       style="fill:none;stroke:#000000;stroke-width:0.02;stroke-miterlimit:4;stroke-dasharray:none;stroke-opacity:1" />
    <circle
       style="fill:none;stroke:#000000;stroke-width:1;stroke-miterlimit:4;stroke-dasharray:none;stroke-opacity:1"
       id="path3549-9"
       cx="561581.5"
       cy="184.25822"
       r="20" />
    <circle
       style="fill:none;stroke:#000000;stroke-width:0.02;stroke-miterlimit:4;stroke-dasharray:none;stroke-opacity:1"
       id="path3555-3"
       cx="516.66699"
       cy="103.75302"
       r="8.0500002" />
    <circle
       style="fill:none;stroke:#000000;stroke-width:0.02;stroke-miterlimit:4;stroke-dasharray:none;stroke-opacity:1"
       id="path3549-6"
       cx="553.17798"
       cy="181.242"
       r="20" />
    <circle
       r="5.9899998"
       cy="117.213"
       cx="452.56699"
       id="path3620"
       style="fill:none;stroke:#000000;stroke-width:0.02;stroke-miterlimit:4;stroke-dasharray:none;stroke-opacity:1" />
    <path
       style="fill:none;stroke:#000000;stroke-width:0.264583px;stroke-linecap:butt;stroke-linejoin:miter;stroke-opacity:1"
       d="m 808.9705,123.36691 v 110.00002 h 19.97999 v 9.97998 h -22.9802 v 19.97998 h -13.97998 v -19.97998 h -22.9798 v -9.97998 h 19.97998 V 123.36691 Z"
       id="path1631" />
    <path
       id="path1631-9"
       d="m 699.70279,290.62301 h 110.00002 v 19.98 h 9.97999 v -22.9802 h 19.97998 V 273.64283 H 819.6828 v -22.97981 h -9.97999 v 19.97999 H 699.70279 Z"
       style="fill:none;stroke:#000000;stroke-width:0.264583px;stroke-linecap:butt;stroke-linejoin:miter;stroke-opacity:1" />
  </g>
</svg>
